<svg xmlns="http://www.w3.org/2000/svg" viewBox="0 0 512 512">
  <rect width="512" height="512" rx="96" fill="#fdfcf9"/>
  <!-- the contract being linted -->
  <rect x="108" y="84" width="216" height="304" rx="16"
        fill="#fdfcf9" stroke="#1f7d5d" stroke-width="18"/>
  <!-- text lines; two carry a squiggle = a lint finding -->
  <line x1="146" y1="140" x2="288" y2="140" stroke="#1f7d5d" stroke-width="15" stroke-linecap="round"/>
  <line x1="146" y1="190" x2="288" y2="190" stroke="#1f7d5d" stroke-width="15" stroke-linecap="round"/>
  <path d="M146 210 q11 -9 22 0 q11 9 22 0 q11 -9 22 0 q11 9 22 0 q11 -9 22 0 q11 9 22 0"
        fill="none" stroke="#d9892b" stroke-width="8" stroke-linecap="round"/>
  <line x1="146" y1="252" x2="248" y2="252" stroke="#1f7d5d" stroke-width="15" stroke-linecap="round"/>
  <line x1="146" y1="302" x2="288" y2="302" stroke="#1f7d5d" stroke-width="15" stroke-linecap="round"/>
  <path d="M146 322 q11 -9 22 0 q11 9 22 0 q11 -9 22 0 q11 9 22 0 q11 -9 22 0 q11 9 22 0"
        fill="none" stroke="#d9892b" stroke-width="8" stroke-linecap="round"/>
  <!-- the gate: pass/fail check badge -->
  <circle cx="360" cy="356" r="66" fill="#fdfcf9" stroke="#1f7d5d" stroke-width="20"/>
  <path d="M330 358 l20 22 l42 -48" fill="none" stroke="#0e4a37" stroke-width="18" stroke-linecap="round" stroke-linejoin="round"/>
</svg>
